<svg id="Layer_4" data-name="Layer 4" xmlns="http://www.w3.org/2000/svg" viewBox="0 0 323.69 143.6"><defs><style>.cls-1,.cls-2{fill:#fff;}.cls-2{font-size:27.31px;font-family:Montserrat-BlackItalic, Montserrat;font-weight:800;font-style:italic;}</style></defs><path class="cls-1" d="M179.56,34.59h-.15c-4,0-7.42,2.78-7.42,6.18V107c0,3.54,3.27,6.31,7.42,6.31h4.75c4.16,0,7.58-2.77,7.58-6.31v-49c0-4,4.45-6.69,8.91-6.69h24.2c5.5,0,10.1,3,10.1,6.81s-4.6,6.69-10.1,6.69h-9.8c-4.16,0-7.43,2.78-7.43,6.31v4.17c0,3.53,3.27,6.31,7.43,6.31h14.26c15.44,0,29.25-10.48,29.25-23.6s-11-23.48-26.43-23.48Z" transform="translate(-28.41 -15.64)"/><path class="cls-1" d="M308.6,34.59c-25.54,0-44.7,17.55-44.7,39.26s20.79,39.38,46.33,39.38H343.5c4.15,0,7.42-2.78,7.42-6.32V78.26c0-3.53-3.27-6.31-7.42-6.31h-4.76c-4.15,0-7.42,2.78-7.42,6.31v8.21c0,3.91-.89,9.84-11.28,9.84h-10.1c-13.52,0-24.65-9.84-24.65-22.34s11.13-22.59,24.65-22.59H343.5c4.15,0,7.42-2.78,7.42-6.31V40.9c0-3.53-3.27-6.31-7.42-6.31Z" transform="translate(-28.41 -15.64)"/><path class="cls-1" d="M105.5,67.05a4.55,4.55,0,0,0,1.69-.39,7.18,7.18,0,0,0,1.64-1.12c.38-.4,7.84-8.28,8.71-9.51s5.36-6.19,5.36-6.19,5.89-6.65,7.61-9.06A63.87,63.87,0,0,0,134.28,35c.6-1.13,1.21-2.39,1.21-2.39s.49-1.13.83-1.7a15.78,15.78,0,0,1,3.12-3.8A14,14,0,0,1,143,25a14.45,14.45,0,0,1,5.43-.94,18.83,18.83,0,0,1,6.71,1.41A13.11,13.11,0,0,1,161.29,31a12.82,12.82,0,0,1,1.49,5,13.13,13.13,0,0,1-.48,4,13.25,13.25,0,0,1-2.16,4.16A19.05,19.05,0,0,1,157.2,47,16.37,16.37,0,0,1,155,48.35c-.65.31-2.32,1-3.2,1.28s-2.61.93-4,1.49-3.2,1.29-4.79,2.12-5.92,3.25-9.31,5.43-6,3.83-8.09,5.36-4.16,3.1-5,3.79-2.31,2.08-2.79,2.62a10.54,10.54,0,0,0-1.67,2.17,4.31,4.31,0,0,0-.59,1.48,2,2,0,0,0,0,1.09,3.78,3.78,0,0,0,1.08,1.69,59.7,59.7,0,0,0,6.65,5.27A107.56,107.56,0,0,0,137,89.7c5.14,2.2,8.76,3.63,11,4.38s6.28,2,8.13,3.56a12,12,0,0,1,4.85,6.77,14.63,14.63,0,0,1-.72,8.94c-1.06,3.27-4.58,6.64-7.09,8a20.67,20.67,0,0,1-9.41,2.05,18,18,0,0,1-6.54-1.7,16.92,16.92,0,0,1-5.67-5.08,34.41,34.41,0,0,1-2.93-5.63c-.5-1.41-1.16-3.76-1.5-4.71a21.42,21.42,0,0,0-2.2-4,59.82,59.82,0,0,0-4.42-5.71c-1.83-2-4.5-4.91-6.28-6.55s-3.93-3.58-4.73-4.14a4.06,4.06,0,0,0-2.18-1,3.6,3.6,0,0,0-1.86.17,4.36,4.36,0,0,0-1.66.89A61.18,61.18,0,0,0,96,92.93a94.83,94.83,0,0,0-8.49,10.42,185,185,0,0,0-10.27,16.36c-3.22,6-6.3,12.65-8.36,15s-6.88,7.09-12.7,8.9-9.21,1.73-10.57,1.55-6.8-.94-9.34-2.87-5.17-3.67-6.63-8.14c-1.07-3.3-2.18-7.45,0-12a22.4,22.4,0,0,1,9.69-9.77A98.79,98.79,0,0,1,51,107a106.72,106.72,0,0,0,14.33-6.51c4-2.38,11-6.84,13.8-9s7.69-6,9.64-7.74,5-4.63,5.86-5.62,1.26-1.46,1.3-1.86a2.29,2.29,0,0,0-.33-1.66,10.09,10.09,0,0,0-2.41-2.45c-1.28-1-3.16-2.78-5.66-4.54s-4.64-3.2-6.32-4.21a110.19,110.19,0,0,0-11.56-6.1A89.09,89.09,0,0,0,59,53.52c-3.94-1.11-9.94-2.93-11.85-3.75s-5.9-2.7-7.76-4.41S34.75,40.77,34.31,37s.46-8.67,1.9-11.06,3.61-5.89,7.64-7.78a23.08,23.08,0,0,1,11-2.47,23.29,23.29,0,0,1,11.09,3.65c3.9,2.51,8.42,7.84,10.82,11.85s5.63,9.2,7,11.3,4.91,7.23,6.22,9,4,5.3,5.39,7a66.72,66.72,0,0,0,4.77,5.27,29.91,29.91,0,0,0,2.9,2.51,4.64,4.64,0,0,0,1.22.61,4.35,4.35,0,0,0,.82.17C105.26,67.05,105.5,67.05,105.5,67.05Z" transform="translate(-28.41 -15.64)"/><path class="cls-1" d="M158.9,36.51h0c-.06-4.67-3.71-9.16-10-9l-.78,0a5.15,5.15,0,0,0-.54,0,9.65,9.65,0,0,0-8.38,6.09c-.14.34-.32.7-.5,1.05-3,6-9.73,14.36-16.35,21.74-4.6,5.11-9.11,9.74-12.23,12.74l-.9.64a6.44,6.44,0,0,1-3.71.61c-5-.47-11.76-8.37-18.43-17.56-2.62-3.61-5.22-7.41-7.67-11-3.38-5-5.26-9.55-8.5-13.64h0c-.08-.11-.18-.21-.27-.32l-.36-.46h0c-.26-.31-.5-.62-.79-.92-4.66-4.78-10.24-7.64-15.73-7.64a16.32,16.32,0,0,0-11.57,5c-.2.19-.37.41-.56.61h0c-.07.07-.11.16-.18.24s-.26.27-.38.41H41c-4.3,5.32-4.34,13.13.33,17.07,3.49,2.94,7.11,4.57,16.22,7.17h0l.28.08,2.77.77c12.27,3.36,25.83,11.67,35.15,20.61,1.13,1.08,4,2.39,3.07,5.49-1.14,4-23.23,25.49-44.37,33.24-9.34,3.42-25.07,9-22.78,21.14,2.65,13.92,27.46,16.08,36.43-1.65,7.82-15.46,19.59-34.26,34.23-44.68,2.58-2.38,5.32-3,8.31-.37,5.48,4.77,18.47,15.74,20.47,22.19,3.11,10,9.56,17.31,20.58,11.68,7.58-5.08,9.64-15.76-2.41-19.63C130.42,92.14,117.85,82,113.52,77.42c-6.47-6.91,11.31-17.34,16.29-20.66h0l.63-.43c7.43-5.28,13.4-7.6,21.77-10.79,4.35-1.67,6.42-5,6.65-8.32h0a2.44,2.44,0,0,1,0-.27C158.88,36.81,158.91,36.66,158.9,36.51Z" transform="translate(-28.41 -15.64)"/><text class="cls-2" transform="translate(127.85 129.59)">CLIENT AREA</text></svg>